<?xml version="1.0" encoding="UTF-8"?>
<svg id="_レイヤー_2" data-name="レイヤー 2" xmlns="http://www.w3.org/2000/svg" viewBox="0 0 354.39 354.23">
  <defs>
    <style>
      .cls-1 {
        fill: #7ec536;
      }

      .cls-2 {
        fill: #fefefe;
      }

      .cls-3 {
        fill: #fec800;
      }

      .cls-4 {
        fill: #a13500;
      }
    </style>
  </defs>
  <g id="_ばなな" data-name="ばなな">
    <g>
      <path class="cls-2" d="M169.82.22C30.08,7.02-48.28,164.59,32.7,279.78c78.19,111.22,250.38,94.83,305.97-29.16C392.46,130.62,301.33-6.18,169.82.22Z"/>
      <path d="M169.82.22c131.51-6.4,222.65,130.4,168.85,250.41-55.59,124-227.78,140.38-305.97,29.16C-48.28,164.59,30.08,7.02,169.82.22ZM170.86,6.47C37.14,12.41-40.52,164.05,37.91,275.61c69.41,98.73,217.19,95.77,282.58-5.63C393.3,157.08,313.58,11.31,182,6.18l-11.14.3Z"/>
      <path class="cls-2" d="M170.86,6.47l11.14-.3c131.58,5.13,211.3,150.9,138.49,263.8-65.4,101.4-213.17,104.37-282.58,5.63M186.7,307.62l-.51,4.18c2.02.25,15.8-2.12,17.94-2.9,13.62-4.98,24.99-16.65,35.02-25.96,2.35-2.18,6.85-3.63,9.04-6.08,4.68-5.24,10.46-20.34,14.89-26.3,16.18-21.77,15.55-29.03,16.98-55.73,1.14-21.29,6.72-23.02-2.2-45.74-3.14-7.99-5.43-13.65-8.32-21.92-1.78-5.1-15.81-20.51-20.37-22.38-4.97-2.03-16.24-3.05-21.83-3.7.14-3.19-.35-6.49.24-9.67.67-3.57,3.88-5.24,1.85-9.11h17.71c-.24-6.18,4.72-19.58,1.95-24.39-3.3-5.74-14.23-1-20.22-1.66-9.84-1.08-23.23-6.12-33.44-7.2-11.02-1.17-23.37,1.85-33.73-1.76-3.55,1.61-1.9,18.75-2.04,23.06-.07,2.28-1.5,5.37-1.01,7.12.96,3.46,4.6-.08,6.75-.33,3.43-.4,7.51-.27,10.88.47-2.72,3.84-6.41,8.19-8.53,12.32-1.21,2.34-2.16,8.67-3.86,10.49-.99,1.06-3.11.6-4.83,1.64-5.16,3.13-14.67,36.45-19.05,44.57-14.29,26.54-56.78,65.35-83.84,78.78-2.97,1.47-6.27.85-9.08,3.43-5.77,5.29-6.56,23.57-2.93,30.13,1.1,1.99,2.34,1.28,2.95,1.71.74.51,1.47,1.77,2.08,2.09l-1.47,3.17c4.88,1.26,11.06,5.16,15.78,5.97,6.3,1.08,10.84-.88,16.42-.89,3.67,0,7.92,2.03,11.99,1.13-.47,7.68.64,24.49,10.42,25.03-.16.19.14.74,0,1.04-.88,1.87-1.83,2.89.68,4.01,5.24-.85,10.54,2.36,15.31,2.17s22.52-4.29,27.56-5.87c7.54-2.37,13.76-8.04,21.45-9.78,2.72,4.38,4.14,9.56,7.39,13.67,3.86,4.88,5.02,5.06,10.96,5.19.35,0,.69,0,1.04,0ZM130.6,125.95c2.07.59,6.09.62,6.11-2.39.02-3.84-8.45-14.68-6.82-18.27.54-1.2,7.11-7.18,8.39-7.08,1.8,3.82,12.96,11.86,12.01,3.44-.48-4.29-20.86-20.46-25.67-22.36-15.7-6.2-6.78,16.36-4.32,23.1,2.94,8.05,7.3,15.55,10.31,23.56ZM106.49,108.36c-.63-.88,7.1-9.91.49-10.47-5.01-.43-18.01,22.59-7.75,20.51,3.06-.62,1.9-5.4,4.63-4.79,4.16.94,14.61,22.39,19.78,20.85,2.16-1.48,2.06-4.1,1.06-6.24-.74-1.58-9.62-12.57-11.43-14.63s-4.07-4.72-6.77-5.23ZM88.39,129.94c2.6-5.17,6.41-12.93-2.66-12.07-3.2,11.9-11.83,12.45-3.64,24.85,1.25,1.89,13.01,15.81,13.99,16.26,6.93,3.21,12.94-8.75,19.27-10.94l.05-4.24c-4.19-5.02-15.35,8.88-16.19,8.4l-3.14-4.67,6.13-1.7c1.33-12.22-4.78-10.45-10.82-3.03-3.43-3.3-7.12-5.95-5.02-11.22.45-1.13,1.88-1.32,2.04-1.63ZM67.92,160.54c-3.73-1.09-7.29-13.45-8.24-14.16-3.18-2.36-6.95,1.4-5.57,5.49,2.8,8.37,12.32,17.32,18,23.8,2.65,3.02,3.4,9.38,9.27,6.67,1.08-4.94-1.07-7.88-4.06-11.35l18.75-1.06c1.82-12.4-13.73-1.39-20.59-6.51-1.01-2.97-1.76-6.56-1.36-9.7.63-4.92,6.29-9.99-5.73-6.8l-.47,13.62ZM63.41,171.33c-3.43-3.43-10.85-5.38-15.58-4.3-3.42.78-9.81,8.28-9.1,11.63.15.7,1.9.54,2.1,1.37.45,1.92-.18,4.14.5,6.64,2.49,9.2,24.36,27.68,28.43,11.7,2.07-8.14-.28-20.96-6.34-27.03Z"/>
      <path class="cls-3" d="M186.7,307.62c-.35,0-.69,0-1.04,0,6.23-11.09-1.81-25.32-8.17-34.75,1.13-3.78,4.31-6.27,5.96-9.71,20.29-42.32,30.61-81.21,22.92-128.05-.52-3.18-3.42-14.84-2.9-16.69.74-2.65,3.06-.47,4.61-.61,8.79-.83,11.49-7.89,19.68-8.25l.76-4.12c1.42-2.24,17.19,1.86,19.82,3.29,5.22,2.83,4.15,7.23,6.52,9.12,1.73,1.39,4.83.88,6.83,2.55,4.91,4.09,5.06,12.94,6.8,18.22,3.67,11.11,12.91,21.05,11.85,34.82-.73,9.52-2.6,16.85-2.96,27.21-.43,12.2-4.42,31.71-11.3,41.97-2.31,3.44-5.53,4.72-6.91,6.65-3.96,5.55-9.1,20.14-14.11,25.51-1.63,1.75-4.13,2.12-5.76,3.62-15.2,14.02-30.22,29.33-52.61,29.21ZM255.45,134.47l-2.06.51c1.2,1.6,2.26,3.56,2.88,5.46,8.73,26.84-5.33,74.17-16.23,100.1-5.25,12.5-14.67,22.33-19.99,34.74l2.94-2.78c5.42-10.88,13.33-19.61,18.08-30.92,11.18-26.6,22.15-66.35,18.28-94.85-.22-1.62-3.32-11.71-3.91-12.26Z"/>
      <path class="cls-4" d="M47.09,260.68c-.61-.42-1.85.28-2.95-1.71-3.63-6.56-2.84-24.84,2.93-30.13,2.81-2.58,6.11-1.95,9.08-3.43,27.06-13.43,69.55-52.24,83.84-78.78,4.38-8.13,13.89-41.44,19.05-44.57,1.72-1.05,3.85-.58,4.83-1.64,1.7-1.82,2.66-8.15,3.86-10.49,2.13-4.12,5.81-8.48,8.53-12.32-3.37-.74-7.46-.87-10.88-.47-2.15.25-5.79,3.79-6.75.33-.49-1.75.94-4.84,1.01-7.12.13-4.31-1.51-21.45,2.04-23.06,10.36,3.61,22.71.59,33.73,1.76,10.21,1.08,23.6,6.12,33.44,7.2,5.99.66,16.91-4.08,20.22,1.66,2.77,4.81-2.19,18.21-1.95,24.39h-17.71c2.03,3.87-1.18,5.54-1.85,9.11-.59,3.18-.11,6.48-.24,9.67,5.59.65,16.86,1.67,21.83,3.7,4.55,1.86,18.58,17.28,20.37,22.38,2.89,8.27,5.18,13.92,8.32,21.92,8.93,22.72,3.34,24.45,2.2,45.74-1.42,26.7-.8,33.96-16.98,55.73-4.43,5.96-10.21,21.06-14.89,26.3-2.19,2.45-6.69,3.9-9.04,6.08-10.03,9.31-21.4,20.98-35.02,25.96-2.14.78-15.92,3.15-17.94,2.9l.51-4.18c22.4.12,37.41-15.19,52.61-29.21,1.63-1.5,4.13-1.87,5.76-3.62,5.01-5.38,10.15-19.97,14.11-25.51,1.38-1.93,4.6-3.21,6.91-6.65,6.88-10.26,10.88-29.77,11.3-41.97.36-10.37,2.23-17.69,2.96-27.21,1.06-13.77-8.18-23.7-11.85-34.82-1.75-5.29-1.9-14.14-6.8-18.22-2-1.67-5.1-1.16-6.83-2.55-2.37-1.89-1.3-6.29-6.52-9.12-2.64-1.43-18.4-5.53-19.82-3.29l-.76,4.12c-8.2.36-10.89,7.42-19.68,8.25-1.55.15-3.88-2.04-4.61.61-.51,1.85,2.38,13.51,2.9,16.69,7.69,46.84-2.62,85.72-22.92,128.05-1.65,3.44-4.84,5.93-5.96,9.71,6.36,9.43,14.4,23.65,8.17,34.75-5.94-.13-7.11-.31-10.96-5.19-3.25-4.11-4.66-9.29-7.39-13.67-7.69,1.74-13.91,7.42-21.45,9.78-5.04,1.58-22.78,5.68-27.56,5.87s-10.08-3.02-15.31-2.17c-2.51-1.13-1.56-2.15-.68-4.01,5.14-.89,10.69,3.05,15.87,2.86,4.31-.15,22.07-4.2,26.64-5.67,7.68-2.47,15.33-10.78,23.12-8.66-2.94-9.26,2.29-8.99,5.73-13.57,5.84-7.79,9.74-20.18,13.57-29.18,2.2-5.15,7.11-10.43,6.75-16.7l-19.76,26.62-28.68,24.48-.51-1.55c8.71-8.76,20.45-15.48,28.66-24.51,17.11-18.81,26.87-38.09,30.62-63.22,3.18-21.37,2.11-39.05-2.1-60.27-.54-2.7-1.92-5.14-1.97-7.95-.58-.53-11.93,4.15-15.15,4.04s-6.21-6.03-7.53.89c-3.63,18.94-3.53,36.1-11.48,54.22-11.75,26.77-31.31,52.7-51.2,73.91-2.58,2.75-6.64,4.52-8.94,7.81,1.59,8.53,5.36,25.08.45,32.72-1.2,1.87-3.48,2.06-4.06,2.72-9.78-.54-10.89-17.36-10.42-25.03,0-.08.64-.54.75-1.36.09-.68-.8-1.55-.75-1.77,1.54-6.04,6.11-5.34,9.34-7.86,8.21-6.44,15.42-14.77,21.92-22.91-.81-1.57-2.51.3-3.47.7-7.29,3.08-14.2,8.12-21.19,11.12-.96.41-2.66,2.27-3.47.7,12.16-9.05,30.77-13.15,40.04-25.62,12.07-16.24,31.75-47.56,34.86-67.33,1.39-8.83,2.45-17.18,4.17-26.07,1.22-6.29-1.13-16.1,9.48-15.02-.1.48.25,4.8,1.52,5.04l7.84-1.95c.84-7.51-5.09-2.86-6.24-8.31.38-.62.42-2.08,1.04-3.13.38-.65,2.73-1.65,3.92-3.9,1.9-3.59,2.29-8.84,3.37-12.78-1.88-1.98-7.66,11.7-10.41,12l3.05,1.6.07,3.08c-6.83.03-17.34,3.79-23.57,1.16-2.58-1.09-2.26-4.66-4.59-2.76-2.07,1.69-4.36,12.66-5.72,16.18-16.64,43.02-47.18,74.86-85.57,99.99-2.63,1.72-6.71,1.68-8.8,4.82-.24,9.59,1.49,33.34-12.4,32.89ZM210.66,97.96c-.05-4.4,1.51-9.4,1.07-13.03-.23-1.93.28-1.72-2.1-1.57,1.62,4.67-1.77,4.97-2.4,6.5-1.11,2.7-1.59,6.21-1.78,9.15-.31,5.02-.28,19.39,7.37,13.91-.51-5.34-2.1-9.4-2.16-14.95Z"/>
      <path class="cls-3" d="M102.31,297.19c.57-.66,2.85-.85,4.06-2.72,4.91-7.64,1.15-24.18-.45-32.72,2.31-3.28,6.37-5.06,8.94-7.81,19.89-21.21,39.45-47.13,51.2-73.91,7.95-18.11,7.85-35.27,11.48-54.22,1.33-6.92,4.29-1.01,7.53-.89s14.58-4.57,15.15-4.04c.05,2.81,1.44,5.25,1.97,7.95,4.21,21.22,5.28,38.91,2.1,60.27-3.74,25.14-13.5,44.41-30.62,63.22-8.21,9.03-19.95,15.75-28.66,24.51l.51,1.55,28.68-24.48,19.76-26.62c.37,6.27-4.55,11.55-6.75,16.7-3.83,9-7.74,21.39-13.57,29.18-3.44,4.59-8.67,4.31-5.73,13.57-7.78-2.12-15.43,6.19-23.12,8.66-4.57,1.47-22.33,5.52-26.64,5.67-5.18.18-10.73-3.75-15.87-2.86.14-.3-.16-.86,0-1.04Z"/>
      <path class="cls-3" d="M47.09,260.68c13.89.45,12.16-23.31,12.4-32.89,2.09-3.14,6.17-3.1,8.8-4.82,38.4-25.14,68.94-56.97,85.57-99.99,1.36-3.52,3.65-14.49,5.72-16.18,2.33-1.9,2,1.67,4.59,2.76,6.24,2.63,16.75-1.13,23.57-1.16-.62,1.05-.67,2.51-1.04,3.13-.94,1.57-2.7,3.23-3.13,5.22-10.61-1.08-8.26,8.73-9.48,15.02-1.73,8.89-2.79,17.25-4.17,26.07-3.11,19.77-22.79,51.09-34.86,67.33-9.27,12.47-27.88,16.57-40.04,25.62.81,1.56,2.51-.29,3.47-.7,6.99-3,13.9-8.04,21.19-11.12.95-.4,2.65-2.27,3.47-.7-6.5,8.14-13.7,16.47-21.92,22.91-3.22,2.53-7.8,1.82-9.34,7.86-4.1.63-7.96-1.1-11.96-1.12-12.75-.06-12.6,2.42-25.75-3.15-1.16-.49-4.74-1.85-5-1.99-.61-.32-1.35-1.57-2.08-2.09Z"/>
      <path class="cls-1" d="M130.6,125.95c-3.01-8.02-7.37-15.51-10.31-23.56-2.46-6.73-11.38-29.3,4.32-23.1,4.81,1.9,25.19,18.07,25.67,22.36.95,8.43-10.21.38-12.01-3.44-1.28-.1-7.84,5.89-8.39,7.08-1.63,3.59,6.84,14.43,6.82,18.27-.02,3-4.04,2.98-6.11,2.39ZM133.57,93.77l-11.45-8.33c.37,2.18,3.21,13.54,4.68,13.54,2.16-1.83,3.71-4.82,6.77-5.21Z"/>
      <path class="cls-1" d="M63.41,171.33c6.07,6.07,8.42,18.89,6.34,27.03-4.07,15.98-25.94-2.5-28.43-11.7-.68-2.5-.05-4.72-.5-6.64-.19-.82-1.95-.67-2.1-1.37-.71-3.35,5.69-10.86,9.1-11.63,4.73-1.07,12.15.87,15.58,4.3ZM58.26,175.45c-6.89-5.8-12.53-1.44-11.11,7.46.63,3.97,11.79,16.05,15.03,15.19,4.75-4.94.36-19.04-3.92-22.64Z"/>
      <path class="cls-1" d="M67.92,160.54l.47-13.62c12.02-3.19,6.36,1.88,5.73,6.8-.4,3.13.35,6.73,1.36,9.7,6.85,5.12,22.4-5.89,20.59,6.51l-18.75,1.06c3,3.47,5.15,6.42,4.06,11.35-5.87,2.7-6.62-3.65-9.27-6.67-5.68-6.48-15.19-15.43-18-23.8-1.37-4.09,2.4-7.84,5.57-5.49.96.71,4.52,13.07,8.24,14.16Z"/>
      <path class="cls-1" d="M88.39,129.94c-.16.31-1.59.51-2.04,1.63-2.1,5.26,1.59,7.92,5.02,11.22,6.04-7.42,12.14-9.19,10.82,3.03l-6.13,1.7,3.14,4.67c.84.48,12.01-13.42,16.19-8.4l-.05,4.24c-6.33,2.19-12.34,14.15-19.27,10.94-.97-.45-12.74-14.37-13.99-16.26-8.19-12.4.44-12.95,3.64-24.85,9.08-.86,5.26,6.9,2.66,12.07Z"/>
      <path class="cls-1" d="M106.49,108.36c2.7.52,4.97,3.18,6.77,5.23s10.69,13.05,11.43,14.63c1,2.14,1.1,4.76-1.06,6.24-5.16,1.54-15.61-19.91-19.78-20.85-2.72-.61-1.57,4.17-4.63,4.79-10.27,2.07,2.74-20.94,7.75-20.51,6.62.57-1.12,9.59-.49,10.47Z"/>
      <path class="cls-4" d="M49.18,262.77c.26.14,3.84,1.5,5,1.99,13.15,5.56,13,3.08,25.75,3.15,4.01.02,7.87,1.76,11.96,1.12-.06.23.84,1.09.75,1.77-.11.82-.74,1.28-.75,1.36-4.07.89-8.31-1.14-11.99-1.13-5.58,0-10.12,1.97-16.42.89-4.72-.81-10.9-4.71-15.78-5.97l1.47-3.17Z"/>
      <path class="cls-4" d="M255.45,134.47c.6.55,3.69,10.64,3.91,12.26,3.86,28.5-7.1,68.25-18.28,94.85-4.75,11.31-12.67,20.04-18.08,30.92l-2.94,2.78c5.32-12.42,14.73-22.24,19.99-34.74,10.9-25.93,24.97-73.25,16.23-100.1-.62-1.9-1.68-3.86-2.88-5.46l2.06-.51Z"/>
      <path class="cls-1" d="M210.66,97.96c.06,5.55,1.65,9.61,2.16,14.95-7.64,5.48-7.68-8.88-7.37-13.91l1.77-2.14,3.44,1.1Z"/>
      <path class="cls-1" d="M187.74,108.39l-.07-3.08-3.05-1.6c2.75-.3,8.52-13.99,10.41-12-1.07,3.94-1.47,9.2-3.37,12.78-1.19,2.25-3.54,3.25-3.92,3.9Z"/>
      <path class="cls-1" d="M186.7,111.52c1.14,5.46,7.08.8,6.24,8.31l-7.84,1.95c-1.28-.25-1.63-4.57-1.52-5.04.42-1.98,2.18-3.65,3.13-5.22Z"/>
      <path class="cls-2" d="M205.46,99c.18-2.93.67-6.45,1.78-9.15.63-1.53,4.01-1.83,2.4-6.5,2.39-.15,1.87-.36,2.1,1.57.44,3.63-1.11,8.63-1.07,13.03l-3.44-1.1-1.77,2.14Z"/>
      <path class="cls-2" d="M133.57,93.77c-3.06.39-4.61,3.38-6.77,5.21-1.47,0-4.31-11.36-4.68-13.54l11.45,8.33Z"/>
      <path class="cls-2" d="M58.26,175.45c4.28,3.6,8.67,17.7,3.92,22.64-3.24.86-14.4-11.22-15.03-15.19-1.42-8.9,4.23-13.26,11.11-7.46Z"/>
    </g>
  </g>
</svg>